M48
;DRILL file {Pcbnew (2013-07-07 BZR 4022)-stable} date 15-11-2013 03:26:52
;FORMAT={3:3/ absolute / metric / suppress leading zeros}
FMAT,2
METRIC,TZ
T1C0.350
T2C0.500
T3C0.800
T4C0.899
T5C1.200
T6C3.000
%
G90
G05
M71
T1
X1100Y-3000
X1100Y-57000
X1650Y-1650
X1650Y-4350
X1650Y-55650
X1650Y-58350
X3000Y-1100
X3000Y-4900
X3000Y-55100
X3000Y-58900
X4100Y-45900
X4350Y-1650
X4350Y-4350
X4350Y-55650
X4350Y-58350
X4900Y-3000
X4900Y-22300
X4900Y-57000
X6200Y-22700
X6200Y-27651
X6200Y-32700
X6200Y-37800
X7000Y-44800
X7300Y-33400
X7300Y-35000
X7300Y-38600
X7300Y-40200
X7400Y-20400
X7400Y-22800
X7400Y-25000
X7400Y-28400
X7500Y-42400
X7600Y-10400
X7600Y-13000
X7600Y-15500
X7600Y-17900
X7600Y-30000
X8400Y-41800
X9100Y-46900
X9600Y-41700
X9700Y-33200
X10000Y-9600
X10700Y-34300
X10900Y-20600
X10900Y-22000
X10900Y-23400
X10900Y-24800
X10900Y-28000
X10900Y-46900
X11500Y-5200
X11500Y-5900
X11500Y-6600
X11500Y-7400
X11500Y-9600
X11500Y-10300
X11500Y-11100
X11500Y-11800
X11500Y-50200
X12300Y-5200
X12300Y-5900
X12300Y-6600
X12300Y-7400
X12300Y-9600
X12300Y-10300
X12300Y-11100
X12300Y-11800
X12500Y-36000
X12800Y-30000
X12900Y-28000
X13500Y-37000
X13600Y-9500
X13600Y-10400
X13600Y-11300
X13600Y-12200
X13600Y-14100
X13600Y-20600
X13600Y-22000
X13600Y-23400
X13600Y-24800
X13900Y-15600
X13900Y-48200
X14000Y-2400
X14000Y-3200
X14000Y-4000
X14100Y-31100
X14100Y-47000
X14400Y-49200
X14900Y-9500
X14900Y-10400
X14900Y-11300
X14900Y-12200
X14900Y-14100
X14900Y-50900
X14900Y-51900
X14900Y-52900
X15000Y-3200
X15000Y-4000
X15100Y-38700
X15500Y-25800
X15600Y-32700
X15700Y-18149
X15700Y-19300
X15700Y-20500
X15900Y-49000
X15900Y-50100
X16500Y-11600
X16700Y-33900
X16800Y-45100
X16900Y-4900
X16900Y-40400
X17300Y-19300
X17400Y-20500
X17700Y-4900
X17700Y-5800
X17700Y-9500
X17700Y-10500
X17700Y-11500
X17900Y-41600
X18100Y-2800
X18100Y-34300
X18200Y-18600
X18300Y-49000
X18300Y-50100
X18500Y-9500
X18500Y-10500
X18500Y-11500
X18700Y-45100
X19100Y-23100
X19200Y-20500
X19300Y-18500
X19400Y-9500
X19400Y-10500
X19400Y-11500
X19600Y-43300
X19700Y-15300
X19700Y-16200
X19900Y-24100
X19900Y-26400
X19900Y-32100
X20100Y-51000
X20100Y-51900
X20100Y-52800
X20300Y-9500
X20300Y-10500
X20300Y-11500
X20300Y-27900
X20600Y-2800
X20700Y-27100
X20700Y-28800
X20800Y-37500
X20900Y-44900
X20900Y-49000
X21100Y-5000
X21100Y-5800
X21100Y-9500
X21100Y-10500
X21100Y-11500
X21200Y-21500
X21200Y-23100
X21200Y-25400
X21300Y-15300
X21700Y-44200
X21800Y-5000
X22000Y-19600
X22000Y-30500
X22100Y-11500
X22200Y-28500
X22400Y-15600
X22400Y-43500
X22500Y-47400
X23000Y-11500
X23000Y-23100
X23000Y-24800
X23100Y-9500
X23100Y-42800
X23300Y-15000
X23450Y-46100
X23600Y-34300
X23700Y-3200
X23700Y-4000
X23800Y-42100
X23830Y-28530
X24000Y-12400
X24000Y-14400
X24100Y-9500
X24100Y-10800
X24300Y-21300
X24500Y-38300
X24700Y-2400
X24700Y-3200
X24700Y-4000
X24900Y-45000
X24900Y-48900
X25100Y-39700
X25200Y-36000
X25500Y-9500
X25700Y-23000
X25700Y-30400
X25700Y-37600
X25700Y-40200
X25800Y-12400
X25800Y-17900
X25800Y-19800
X26000Y-15500
X26200Y-25700
X26200Y-40800
X26700Y-34600
X26900Y-30600
X26900Y-39100
X27000Y-9500
X27100Y-40600
X27300Y-20600
X27400Y-36600
X27500Y-51500
X27600Y-14500
X27600Y-24800
X27600Y-30100
X27700Y-34600
X27800Y-41300
X28000Y-42700
X28300Y-29400
X28600Y-9500
X28700Y-43400
X29000Y-23100
X29000Y-25200
X29000Y-27400
X29300Y-33400
X29400Y-35800
X29600Y-43600
X29700Y-20600
X29800Y-28200
X30100Y-22200
X30100Y-31400
X30200Y-9500
X30500Y-34800
X30500Y-44300
X30600Y-42800
X30700Y-15200
X30700Y-18100
X30700Y-23100
X30800Y-24800
X30800Y-30600
X30800Y-38600
X30800Y-40300
X30900Y-21400
X30900Y-33900
X31200Y-54200
X31200Y-56100
X31400Y-45000
X31500Y-5200
X31500Y-5900
X31500Y-6600
X31500Y-7400
X31500Y-9600
X31500Y-10300
X31500Y-11100
X31500Y-11800
X31900Y-13400
X32100Y-41200
X32300Y-5200
X32300Y-5900
X32300Y-6600
X32300Y-7400
X32300Y-9600
X32300Y-10300
X32300Y-11100
X32300Y-11800
X32400Y-47800
X32500Y-15200
X32500Y-18100
X32500Y-20000
X32800Y-40600
X33200Y-23100
X33200Y-30100
X33200Y-38600
X33300Y-24800
X33300Y-27200
X33300Y-34000
X33400Y-9600
X33400Y-10700
X33400Y-11700
X33400Y-21400
X33400Y-54200
X33400Y-56100
X33600Y-37500
X33600Y-40200
X34000Y-2400
X34000Y-3200
X34000Y-4000
X34100Y-30700
X34200Y-13600
X34300Y-10400
X34300Y-22200
X34600Y-37500
X34800Y-14200
X34900Y-39900
X35000Y-3200
X35000Y-4000
X35000Y-31600
X35300Y-48500
X35400Y-27100
X35600Y-36500
X35700Y-18149
X35700Y-40600
X35800Y-26100
X36000Y-37300
X36100Y-43400
X36500Y-10500
X36500Y-11500
X36600Y-9500
X36600Y-29500
X36800Y-23100
X36800Y-26100
X36900Y-4900
X36900Y-19400
X36900Y-42500
X37200Y-34200
X37300Y-56100
X37400Y-28600
X37700Y-4900
X37700Y-5700
X37700Y-9500
X37700Y-10500
X37700Y-11500
X37700Y-49500
X38000Y-18500
X38000Y-30600
X38100Y-2800
X38300Y-23100
X38300Y-41100
X38500Y-9500
X38500Y-10500
X38500Y-11500
X38500Y-34800
X39000Y-36700
X39200Y-24800
X39300Y-18400
X39400Y-9500
X39400Y-10500
X39400Y-11500
X39400Y-23100
X39400Y-28900
X39600Y-32500
X39700Y-15300
X39700Y-16200
X39700Y-39500
X39900Y-26200
X40100Y-54200
X40100Y-56100
X40300Y-9500
X40300Y-10500
X40300Y-11500
X40600Y-2800
X40600Y-38900
X41100Y-4900
X41100Y-5600
X41100Y-9500
X41100Y-10500
X41100Y-11500
X41300Y-15300
X41800Y-4900
X41800Y-31900
X41900Y-23100
X41900Y-46700
X42000Y-24900
X42000Y-26200
X42000Y-28900
X42100Y-19500
X42200Y-9500
X42200Y-10500
X42200Y-11500
X42400Y-15500
X42400Y-54200
X42400Y-56100
X42900Y-32300
X42900Y-37400
X43100Y-10500
X43100Y-11500
X43200Y-15700
X43600Y-14900
X43600Y-31500
X43600Y-42900
X43700Y-3200
X43700Y-4000
X43800Y-33250
X43900Y-17500
X44000Y-10200
X44100Y-20600
X44200Y-44400
X44400Y-42000
X44500Y-26800
X44700Y-2400
X44700Y-3200
X44700Y-4000
X44700Y-36900
X44800Y-9500
X44800Y-24200
X45000Y-20000
X45100Y-23200
X45300Y-31700
X45400Y-12500
X46000Y-14200
X46000Y-15400
X46000Y-24200
X46100Y-28000
X46200Y-33100
X46200Y-51900
X46400Y-37800
X46800Y-9500
X46800Y-19100
X46800Y-20900
X46800Y-23200
X47000Y-44900
X47300Y-37900
X47800Y-41800
X47800Y-43600
X47800Y-49200
X48000Y-24600
X48300Y-38100
X48500Y-19100
X48500Y-20900
X48700Y-9500
X48800Y-49200
X48800Y-51900
X48800Y-54200
X48800Y-56100
X48900Y-40000
X48900Y-41800
X48900Y-47800
X49400Y-38400
X49500Y-21300
X49500Y-24100
X49500Y-50700
X49700Y-44900
X49700Y-47100
X50200Y-39900
X50200Y-41800
X50200Y-43400
X50300Y-47800
X50400Y-46400
X50500Y-19100
X50500Y-20900
X50600Y-44900
X50700Y-49200
X51000Y-54200
X51000Y-56100
X51100Y-45700
X51200Y-47800
X51300Y-39500
X51300Y-41800
X51300Y-43800
X51400Y-49900
X51500Y-5200
X51500Y-5900
X51500Y-6600
X51500Y-7400
X51500Y-9600
X51500Y-10300
X51500Y-11100
X51500Y-11800
X51600Y-25100
X51900Y-13000
X51900Y-14400
X52000Y-19100
X52000Y-20900
X52000Y-22600
X52000Y-52300
X52100Y-47800
X52200Y-29400
X52200Y-31300
X52200Y-32700
X52200Y-36900
X52300Y-5200
X52300Y-5900
X52300Y-6600
X52300Y-7400
X52300Y-9600
X52300Y-10300
X52300Y-11100
X52300Y-11800
X52300Y-50600
X52800Y-55200
X53000Y-40100
X53000Y-41800
X53000Y-48500
X53100Y-24900
X53100Y-26800
X53200Y-32800
X53200Y-36900
X53600Y-9600
X53600Y-10700
X53600Y-11700
X53600Y-13900
X53600Y-19100
X53600Y-20900
X53600Y-22600
X53800Y-33900
X53800Y-39200
X54000Y-2400
X54000Y-3200
X54000Y-4000
X54000Y-51800
X54000Y-53900
X54700Y-9600
X54700Y-10700
X54700Y-12800
X54700Y-13900
X54900Y-21800
X54900Y-42800
X55000Y-3200
X55000Y-4000
X55000Y-44300
X55400Y-39100
X55500Y-32800
X55700Y-18149
X55900Y-28200
X56200Y-41400
X56400Y-34000
X56400Y-49200
X56500Y-11500
X56500Y-36900
X56700Y-31100
X56800Y-19100
X57000Y-4900
X57300Y-34700
X57300Y-40000
X57600Y-24900
X57600Y-27900
X57700Y-4900
X57700Y-5600
X57700Y-9500
X57700Y-10500
X57700Y-11500
X58100Y-2800
X58300Y-32800
X58500Y-9500
X58500Y-10500
X58500Y-11500
X58500Y-36300
X58800Y-19500
X59300Y-18400
X59300Y-47800
X59400Y-9500
X59400Y-10500
X59400Y-11500
X59500Y-38800
X59500Y-42600
X59800Y-15600
X59800Y-34600
X59800Y-37300
X60300Y-9500
X60300Y-10500
X60300Y-11500
X60600Y-2800
X60600Y-36600
X61100Y-4900
X61100Y-5600
X61100Y-9500
X61100Y-10500
X61100Y-11500
X61400Y-15600
X61400Y-52200
X61400Y-56100
X61600Y-36800
X61600Y-49900
X61700Y-40600
X61700Y-41600
X61800Y-4900
X62400Y-10500
X62400Y-11900
X62400Y-15600
X62800Y-30200
X62900Y-28600
X63000Y-22600
X63100Y-9500
X63300Y-49900
X63700Y-3200
X63700Y-4000
X63700Y-36800
X63800Y-14300
X63800Y-24900
X63800Y-26800
X63800Y-30800
X63800Y-41600
X63900Y-15500
X64200Y-23500
X64700Y-2400
X64700Y-3200
X64700Y-4000
X64700Y-20700
X64900Y-19700
X64900Y-21800
X65000Y-18100
X65000Y-32000
X65000Y-48500
X65100Y-9500
X65100Y-11900
X65100Y-36800
X65100Y-41600
X65900Y-15400
X66000Y-50200
X66500Y-14300
X66600Y-18100
X66600Y-21800
X66600Y-32000
X66900Y-27900
X67300Y-9500
X67700Y-41600
X67700Y-51900
X67700Y-54500
X68200Y-28100
X68700Y-45400
X69000Y-50200
X69000Y-51800
X69200Y-42900
X69300Y-44100
X69400Y-46300
X69700Y-9500
X69900Y-19700
X69900Y-54600
X70000Y-56000
X70200Y-35200
X70200Y-38300
X70300Y-29200
X71100Y-51800
X71200Y-39600
X71400Y-49300
X71500Y-5200
X71500Y-5900
X71500Y-6600
X71500Y-7400
X71500Y-9600
X71500Y-10300
X71500Y-11100
X71500Y-11800
X71900Y-27600
X71900Y-29200
X72100Y-40400
X72200Y-38300
X72300Y-5200
X72300Y-5900
X72300Y-6600
X72300Y-7400
X72300Y-9600
X72300Y-10300
X72300Y-11100
X72300Y-11800
X72500Y-24900
X72500Y-33300
X73100Y-46300
X73400Y-18900
X73700Y-9600
X73700Y-10700
X73700Y-12200
X73700Y-13800
X74000Y-2400
X74000Y-3200
X74000Y-4000
X74200Y-27600
X74200Y-29200
X74500Y-36700
X74600Y-9600
X74700Y-10800
X74700Y-46200
X74900Y-33300
X75000Y-3200
X75000Y-4000
X75100Y-53700
X75200Y-50200
X75200Y-54600
X75500Y-20600
X75500Y-36700
X75700Y-18149
X76500Y-10500
X76500Y-11500
X76500Y-36700
X76700Y-27600
X76700Y-29200
X76700Y-31300
X76700Y-32300
X76700Y-48400
X76700Y-53700
X76900Y-4900
X77200Y-31800
X77300Y-24900
X77500Y-41800
X77600Y-46200
X77700Y-4900
X77700Y-5800
X77700Y-9500
X77700Y-10500
X77700Y-11500
X77700Y-31300
X77700Y-32300
X77800Y-36700
X78100Y-18700
X78200Y-2800
X78300Y-29200
X78500Y-9500
X78500Y-10500
X78500Y-11500
X78700Y-55600
X78800Y-43100
X79000Y-33500
X79000Y-48400
X79000Y-50200
X79000Y-52100
X79100Y-37900
X79300Y-18400
X79300Y-51100
X79400Y-9500
X79400Y-10500
X79400Y-11500
X79700Y-15900
X79800Y-54700
X79900Y-45400
X80100Y-26600
X80100Y-36100
X80300Y-9500
X80300Y-10500
X80300Y-11500
X80600Y-2800
X80700Y-53900
X80700Y-55600
X80800Y-46100
X81000Y-40100
X81100Y-4900
X81100Y-5800
X81100Y-9500
X81100Y-10500
X81100Y-11500
X81200Y-23000
X81300Y-15600
X81300Y-35500
X81300Y-42900
X81300Y-50100
X81400Y-30400
X81400Y-33000
X81600Y-24900
X81700Y-37900
X81800Y-47100
X81900Y-4900
X82000Y-19700
X82300Y-12000
X82300Y-15600
X82500Y-46100
X82600Y-28900
X82600Y-29700
X82600Y-38900
X82600Y-39700
X82600Y-48900
X82600Y-49700
X82700Y-36100
X82800Y-21900
X83100Y-9500
X83100Y-10400
X83400Y-15400
X83500Y-28900
X83500Y-29700
X83500Y-30700
X83500Y-38900
X83500Y-39700
X83500Y-48900
X83500Y-49700
X83500Y-51000
X83600Y-37100
X83700Y-3200
X83700Y-4000
X83800Y-14400
X84000Y-47200
X84100Y-12500
X84300Y-36100
X84400Y-26200
X84400Y-28900
X84400Y-29700
X84400Y-38900
X84400Y-39700
X84400Y-48900
X84400Y-49700
X84700Y-2400
X84700Y-3200
X84700Y-4000
X85000Y-37900
X85100Y-12000
X85200Y-10400
X85400Y-26300
X86000Y-15400
X86000Y-22600
X86100Y-12700
X86100Y-30600
X86100Y-32600
X86700Y-42700
X87100Y-51400
X88300Y-32600
X90000Y-32600
X91600Y-32600
X93600Y-22600
X93700Y-32600
X93700Y-51400
X93800Y-42700
X95000Y-31500
X95100Y-3000
X95100Y-57000
X95650Y-1650
X95650Y-4350
X95650Y-55650
X95650Y-58350
X96000Y-31500
X97000Y-1100
X97000Y-4900
X97000Y-55100
X97000Y-58900
X98350Y-1650
X98350Y-4350
X98350Y-55650
X98350Y-58350
X98900Y-3000
X98900Y-57000
X99200Y-51400
X99200Y-53200
T2
X95000Y-41400
T3
X2200Y-9120
X2200Y-11660
X2200Y-14200
X2200Y-16740
X2200Y-24180
X2200Y-26720
X2200Y-29260
X2200Y-31800
X2200Y-34340
X2200Y-36880
X2200Y-39420
X2200Y-41960
X10760Y-42700
X13300Y-42700
X15560Y-1500
X15840Y-42700
X18100Y-1500
X18380Y-42700
X20640Y-1500
X23180Y-1500
X27360Y-53200
X27360Y-57200
X29900Y-53200
X29900Y-57200
X32440Y-53200
X32440Y-57200
X35560Y-1500
X36160Y-53200
X36160Y-57200
X38100Y-1500
X38700Y-53200
X38700Y-57200
X40500Y-25060
X40500Y-27600
X40500Y-30140
X40640Y-1500
X41240Y-53200
X41240Y-57200
X43180Y-1500
X44960Y-53200
X44960Y-57200
X47500Y-53200
X47500Y-57200
X50040Y-53200
X50040Y-57200
X55560Y-1500
X58100Y-1500
X60640Y-1500
X63180Y-1500
X75560Y-1500
X78100Y-1500
X80640Y-1500
X83180Y-1500
X87600Y-24200
X87600Y-25600
X87600Y-27000
X87600Y-28400
X87600Y-29800
X87600Y-34200
X87600Y-35600
X87600Y-37000
X87600Y-38400
X87600Y-39800
X87600Y-44200
X87600Y-45600
X87600Y-47000
X87600Y-48400
X87600Y-49800
X89000Y-24200
X89000Y-25600
X89000Y-27000
X89000Y-28400
X89000Y-29800
X89000Y-34200
X89000Y-35600
X89000Y-37000
X89000Y-38400
X89000Y-39800
X89000Y-44200
X89000Y-45600
X89000Y-47000
X89000Y-48400
X89000Y-49800
X90400Y-24200
X90400Y-25600
X90400Y-27000
X90400Y-28400
X90400Y-29800
X90400Y-34200
X90400Y-35600
X90400Y-37000
X90400Y-38400
X90400Y-39800
X90400Y-44200
X90400Y-45600
X90400Y-47000
X90400Y-48400
X90400Y-49800
X91800Y-24200
X91800Y-25600
X91800Y-27000
X91800Y-28400
X91800Y-29800
X91800Y-34200
X91800Y-35600
X91800Y-37000
X91800Y-38400
X91800Y-39800
X91800Y-44200
X91800Y-45600
X91800Y-47000
X91800Y-48400
X91800Y-49800
X93200Y-24200
X93200Y-25600
X93200Y-27000
X93200Y-28400
X93200Y-29800
X93200Y-34200
X93200Y-35600
X93200Y-37000
X93200Y-38400
X93200Y-39800
X93200Y-44200
X93200Y-45600
X93200Y-47000
X93200Y-48400
X93200Y-49800
X97100Y-25760
X97100Y-28300
X97100Y-35760
X97100Y-38300
X97100Y-45760
X97100Y-48300
T4
X15300Y-54651
X19700Y-54651
T5
X92400Y-11400
X92400Y-16400
T6
X3000Y-3000
X3000Y-57000
X97000Y-3000
X97000Y-57000
T0
M30
